<svg width="184" height="168" viewBox="0 0 184 168" fill="none" xmlns="http://www.w3.org/2000/svg">
<path d="M106.897 63.5392C106.897 55.2498 101.789 50.6738 92.8185 50.6738H76.3174V77.3798H90.232C100.971 77.3423 106.897 72.3912 106.897 63.5392ZM166.975 58.7381C163.865 47.148 163.406 32.9324 163.767 21.9424C164.127 10.5023 156.335 0 145.858 0H38.2078C27.6982 0 19.9388 10.5399 20.2989 21.9424C20.6263 32.9324 20.2007 47.148 17.0904 58.7381C13.9473 70.3657 8.67616 77.7173 0 78.6551V89.3449C8.64342 90.2827 13.9473 97.6343 17.0904 109.262C20.2007 120.852 20.6591 135.068 20.2989 146.058C19.9388 157.498 27.731 168 38.2078 168H145.825C156.335 168 164.094 157.46 163.734 146.058C163.406 135.068 163.832 120.852 166.942 109.262C170.085 97.6343 175.357 90.2827 184 89.3449V78.6551C175.389 77.7173 170.085 70.3657 166.975 58.7381ZM95.9943 128.691H63.9416V39.3088H95.8306C110.007 39.3088 119.305 48.0857 119.305 61.5887C119.305 71.0784 113.052 79.5553 105.063 81.0181V81.5057C115.933 82.856 123.234 91.4829 123.234 103.373C123.234 119.164 112.986 128.691 95.9943 128.691ZM92.7203 87.9196H76.3174V117.326H93.4406C104.638 117.326 110.564 112.188 110.564 102.51C110.564 92.8707 104.474 87.9196 92.7203 87.9196Z" fill="#8685EF"/>
</svg>
