<svg width="25" height="23" viewBox="0 0 25 23" fill="none" xmlns="http://www.w3.org/2000/svg">
<path d="M12.5 19.312C12.3692 19.3117 12.2399 19.286 12.1205 19.2368C12.0012 19.1875 11.8944 19.1156 11.8072 19.0259L3.08081 10.1229C2.9609 9.99953 2.8823 9.84693 2.85448 9.68344C2.82667 9.51996 2.85082 9.35256 2.92403 9.20141C2.99724 9.05026 3.11638 8.92181 3.26711 8.83152C3.41784 8.74123 3.59373 8.69296 3.77359 8.69251H7.268V0.858209C7.268 0.630598 7.36628 0.412309 7.54122 0.251364C7.71617 0.0904182 7.95344 0 8.20084 0H16.8016C17.049 0 17.2863 0.0904182 17.4612 0.251364C17.6362 0.412309 17.7344 0.630598 17.7344 0.858209V8.69023H21.227C21.4068 8.69067 21.5827 8.73894 21.7335 8.82923C21.8842 8.91952 22.0033 9.04798 22.0765 9.19912C22.1498 9.35027 22.1739 9.51767 22.1461 9.68115C22.1183 9.84464 22.0397 9.99724 21.9198 10.1206L13.1928 19.0282C13.1053 19.1175 12.9985 19.1889 12.8791 19.2378C12.7598 19.2867 12.6306 19.312 12.5 19.312ZM5.87061 10.4066L12.5 17.1722L19.13 10.4066H16.8016C16.5542 10.4066 16.3169 10.3162 16.142 10.1553C15.967 9.99434 15.8688 9.77605 15.8688 9.54844V1.71642H9.13368V9.54844C9.13368 9.77605 9.0354 9.99434 8.86046 10.1553C8.68551 10.3162 8.44824 10.4066 8.20084 10.4066H5.87061Z" fill="white"/>
<path d="M20.9397 23H4.06095C2.98438 22.999 1.95222 22.6051 1.19092 21.9048C0.429608 21.2045 0.00131689 20.255 0 19.2645V17.0807C0 16.8531 0.0982806 16.6348 0.273221 16.4738C0.448162 16.3129 0.685432 16.2225 0.932836 16.2225C1.18024 16.2225 1.41751 16.3129 1.59245 16.4738C1.76739 16.6348 1.86567 16.8531 1.86567 17.0807V19.2645C1.86649 19.7999 2.09807 20.3131 2.5096 20.6916C2.92113 21.0701 3.47903 21.283 4.06095 21.2836H20.9397C21.5215 21.283 22.0794 21.0701 22.4908 20.6916C22.9022 20.313 23.1337 19.7998 23.1343 19.2645V17.0807C23.1343 16.8531 23.2326 16.6348 23.4075 16.4738C23.5825 16.3129 23.8198 16.2225 24.0672 16.2225C24.3146 16.2225 24.5518 16.3129 24.7268 16.4738C24.9017 16.6348 25 16.8531 25 17.0807V19.2645C24.9987 20.2549 24.5705 21.2043 23.8093 21.9046C23.0481 22.6049 22.0161 22.9988 20.9397 23Z" fill="white"/>
</svg>
