<svg width="20" height="18" viewBox="0 0 20 18" fill="none" xmlns="http://www.w3.org/2000/svg">
<g clip-path="url(#clip0_48_5)">
<path d="M3.24162 12.8795L5.21245 1.47048C5.22672 1.38591 5.27026 1.30755 5.33689 1.24654C5.40352 1.18554 5.48983 1.14501 5.58354 1.13071C5.67725 1.11642 5.77358 1.1291 5.85882 1.16694C5.94405 1.20479 6.01386 1.26586 6.05828 1.34148L8.17745 4.91973L3.24162 12.8795ZM17.2374 15.6477L15.3608 5.14848C15.347 5.07489 15.311 5.00613 15.2567 4.9497C15.2024 4.89327 15.132 4.85135 15.053 4.82852C14.9741 4.80569 14.8897 4.80282 14.809 4.82023C14.7284 4.83764 14.6546 4.87465 14.5958 4.92724L2.76245 15.6477L9.30995 18.9687C9.51188 19.0708 9.73959 19.1245 9.9712 19.1245C10.2028 19.1245 10.4305 19.0708 10.6325 18.9687L17.2374 15.6477ZM11.9166 6.48573L10.4 3.87423C10.3617 3.80856 10.3042 3.75356 10.2337 3.71519C10.1632 3.67681 10.0823 3.65653 9.99995 3.65653C9.91755 3.65653 9.83673 3.67681 9.76622 3.71519C9.69572 3.75356 9.63822 3.80856 9.59995 3.87423L2.94162 14.6127L11.9166 6.48573Z" fill="white"/>
</g>
<defs>
<clipPath id="clip0_48_5">
<rect width="20" height="18" fill="white"/>
</clipPath>
</defs>
</svg>
