<svg width="135" height="144" viewBox="0 0 135 144" fill="none" xmlns="http://www.w3.org/2000/svg">
<path d="M88.6487 52.0115L69.9348 65.4233L52.5693 38.4461L61.5549 22.9322C63.8294 19.8221 67.5403 19.8162 69.8148 22.9322L88.6487 52.0115Z" fill="#FFA000"/>
<path d="M69.9345 65.423L0.00195312 115.53L52.5691 38.4458L69.9345 65.423Z" fill="#F57F17"/>
<path d="M109.117 31.5115C112.46 29.0365 115.916 29.8807 116.797 33.3875L135 114.858L74.6582 142.712C72.5465 143.61 66.9546 144 66.9546 144C66.9546 144 61.8504 143.53 59.9051 142.698L0 115.527L109.117 31.5115Z" fill="#FFCA28"/>
<path d="M52.5691 38.4457L0.00195312 115.53L23.4162 2.8694C24.2784 -0.640156 26.8722 -0.978139 29.1863 2.11964L52.5691 38.4457Z" fill="#FFA000"/>
</svg>
