<svg width="58" height="49" viewBox="0 0 58 49" fill="none" xmlns="http://www.w3.org/2000/svg">
<path d="M58 45.9375C58 47.628 56.376 49 54.375 49H3.625C1.624 49 0 47.628 0 45.9375V3.0625C0 1.372 1.624 0 3.625 0H54.375C56.376 0 58 1.372 58 3.0625V45.9375Z" fill="#007BB5"/>
<path d="M19.9375 16.8438H12.6875V38.2812H19.9375V16.8438Z" fill="white"/>
<path d="M37.1544 16.8438C32.0958 16.8438 31.2257 18.4026 30.8125 19.9062V16.8438H23.5625V38.2812H30.8125V26.0312C30.8125 24.0452 32.0867 22.9688 34.4375 22.9688C36.7321 22.9688 38.0625 24.0223 38.0625 26.0312V38.2812H45.3125V27.5625C45.3125 21.4375 44.3682 16.8438 37.1544 16.8438Z" fill="white"/>
<path d="M16.3125 15.3125C18.3145 15.3125 19.9375 13.9414 19.9375 12.25C19.9375 10.5586 18.3145 9.1875 16.3125 9.1875C14.3105 9.1875 12.6875 10.5586 12.6875 12.25C12.6875 13.9414 14.3105 15.3125 16.3125 15.3125Z" fill="white"/>
</svg>
