<svg width="28" height="26" viewBox="0 0 28 26" fill="none" xmlns="http://www.w3.org/2000/svg">
<path d="M25.2816 19.6665C25.0485 19.6778 24.8285 19.6778 24.5955 19.6778C20.8285 19.6778 17.2816 18.4021 14.6149 16.0764C11.9482 13.7508 10.4854 10.6574 10.4854 7.37212C10.4854 5.49805 10.9644 3.69171 11.8576 2.05471C12.2589 1.33218 12.7379 0.643508 13.2945 0C12.3107 0.090317 11.3657 0.27095 10.4466 0.519322C4.38835 2.19019 0 7.12375 0 12.9605C0 20.1633 6.69255 26 14.9515 26C19.521 26 23.5987 24.2162 26.343 21.4051C26.9644 20.7616 27.534 20.0617 28 19.3165C27.1197 19.5085 26.2136 19.6327 25.2816 19.6665ZM14.9515 24.1937C7.84466 24.1937 2.0712 19.1585 2.0712 12.9605C2.0712 8.54624 4.99676 4.73035 9.24272 2.89014C8.69903 4.30134 8.41424 5.80287 8.41424 7.37212C8.41424 14.812 15.0162 20.9084 23.3786 21.4503C21.1262 23.1663 18.1748 24.1937 14.9515 24.1937Z" fill="black"/>
</svg>
