<svg width="159" height="149" viewBox="0 0 159 149" fill="none" xmlns="http://www.w3.org/2000/svg">
<path d="M79.3675 86.867C86.7145 86.867 92.6705 81.2856 92.6705 74.4007C92.6705 67.5157 86.7145 61.9343 79.3675 61.9343C72.0204 61.9343 66.0645 67.5157 66.0645 74.4007C66.0645 81.2856 72.0204 86.867 79.3675 86.867Z" fill="#00D8FF"/>
<path d="M79.3673 102.959C60.6848 102.959 44.3608 100.898 32.1443 96.9742C24.2208 94.4412 17.4898 91.0639 12.6933 87.2147C7.60534 83.142 4.90234 78.6969 4.90234 74.4007C4.90234 66.156 14.5483 58.0852 30.7398 52.8205C43.9898 48.4995 61.2678 46.0907 79.3408 46.0907C97.0958 46.0907 114.135 48.425 127.306 52.6964C135.017 55.1797 141.51 58.408 146.121 61.984C151.129 65.9077 153.779 70.2039 153.779 74.4007C153.779 82.9682 142.994 91.635 125.61 97.0239C113.314 100.848 96.8838 102.959 79.3673 102.959ZM79.3673 52.0507C62.2218 52.0507 45.2618 54.385 32.8598 58.4329C17.9668 63.3002 11.2888 69.9555 11.2888 74.4007C11.2888 79.0197 18.4703 86.2959 34.2113 91.337C45.7653 95.0372 61.4003 96.999 79.3673 96.999C96.2213 96.999 111.936 95.0124 123.622 91.3619C139.973 86.271 147.446 78.9949 147.446 74.4007C147.446 72.0415 145.538 69.2602 142.066 66.5534C138.065 63.4244 132.235 60.5685 125.265 58.3087C112.731 54.2857 96.4333 52.0507 79.3673 52.0507Z" fill="#00D8FF"/>
<path d="M49.1841 136.534C46.4811 136.534 44.0961 135.987 42.0821 134.895C34.4766 130.772 31.8266 118.902 35.0331 103.133C37.6566 90.1947 44.0696 74.9967 53.1061 60.3202C61.9836 45.9169 72.6366 33.2519 83.1571 24.6844C89.3051 19.6681 95.5326 15.9927 101.151 14.0557C107.272 11.9449 112.572 11.9449 116.441 14.0309C124.365 18.3022 126.988 31.4142 123.278 48.2016C120.655 60.1216 114.401 74.5001 105.656 88.7296C96.3276 103.878 86.2576 116.096 76.5321 124.067C70.2251 129.233 63.7326 133.007 57.7966 134.969C54.6961 136.012 51.7811 136.534 49.1841 136.534ZM55.8356 61.8102L58.5916 63.3002C50.0321 77.2069 43.6986 92.1317 41.2606 104.25C38.3191 118.778 41.1546 127.519 45.2356 129.729C46.2426 130.276 47.5676 130.574 49.1841 130.574C54.4576 130.574 62.7521 127.445 72.3451 119.597C81.5406 112.073 91.1601 100.352 100.144 85.7744C108.571 72.0912 114.56 58.3336 117.051 47.0344C120.522 31.2156 117.528 21.5306 113.261 19.2211C111.088 18.0539 107.564 18.2029 103.324 19.6681C98.4211 21.3567 92.8826 24.6596 87.3176 29.2041C77.3271 37.3494 67.1246 49.4681 58.5916 63.3251L55.8356 61.8102Z" fill="#00D8FF"/>
<path d="M109.551 136.608C102.343 136.608 93.2007 132.535 83.6607 124.837C73.0077 116.245 62.1692 103.456 53.1062 88.7791C44.2022 74.3758 37.8422 59.4013 35.1657 46.5625C33.6022 39.0628 33.3107 32.184 34.3177 26.6461C35.4307 20.6116 38.0542 16.3155 41.9497 14.2046C49.8467 9.90845 63.2822 14.3288 76.9562 25.7273C86.6552 33.7981 96.8312 46.0658 105.603 60.2705C114.957 75.4188 121.238 89.698 123.729 101.568C125.345 109.267 125.61 116.419 124.471 122.23C123.252 128.413 120.496 132.809 116.521 134.969C114.533 136.062 112.175 136.608 109.551 136.608ZM58.6182 85.7991C67.2042 99.7058 77.8572 112.296 87.8212 120.317C99.7727 129.953 109.26 132.039 113.367 129.804C117.634 127.494 120.761 118.033 117.528 102.735C115.143 91.5108 109.127 77.8525 100.117 63.2753C91.6637 49.5921 81.9382 37.846 72.7427 30.1973C59.8637 19.4693 49.4227 17.0605 45.1562 19.37C42.9832 20.5371 41.3667 23.4923 40.5982 27.6643C39.7237 32.482 39.9887 38.6406 41.4197 45.4201C43.9637 57.6133 50.0587 71.9421 58.6182 85.7991Z" fill="#00D8FF"/>
</svg>
