<svg width="21" height="19" viewBox="0 0 21 19" fill="none" xmlns="http://www.w3.org/2000/svg">
<path d="M10.5 7.80663C10.2542 7.80663 10.0108 7.85043 9.78376 7.93553C9.55668 8.02063 9.35036 8.14536 9.17656 8.30261C9.00276 8.45985 8.8649 8.64653 8.77084 8.85198C8.67679 9.05743 8.62838 9.27763 8.62838 9.5C8.62838 9.72238 8.67679 9.94258 8.77084 10.148C8.8649 10.3535 9.00276 10.5402 9.17656 10.6974C9.35036 10.8546 9.55668 10.9794 9.78376 11.0645C10.0108 11.1496 10.2542 11.1934 10.5 11.1934C10.7458 11.1934 10.9892 11.1496 11.2162 11.0645C11.4433 10.9794 11.6496 10.8546 11.8234 10.6974C11.9972 10.5402 12.1351 10.3535 12.2292 10.148C12.3232 9.94258 12.3716 9.72238 12.3716 9.5C12.3716 9.27763 12.3232 9.05743 12.2292 8.85198C12.1351 8.64653 11.9972 8.45985 11.8234 8.30261C11.6496 8.14536 11.4433 8.02063 11.2162 7.93553C10.9892 7.85043 10.7458 7.80663 10.5 7.80663ZM5.257 12.8685L4.844 12.7735C1.76575 12.0698 0 10.8751 0 9.49684C0 8.11854 1.76575 6.92392 4.844 6.22013L5.257 6.12592L5.37337 6.49642C5.68521 7.46836 6.08407 8.41569 6.566 9.329L6.65438 9.49763L6.566 9.66625C6.08327 10.5793 5.68438 11.5266 5.37337 12.4988L5.257 12.8685ZM4.65237 7.08542C2.31262 7.67996 0.87675 8.58959 0.87675 9.49684C0.87675 10.4033 2.31262 11.3129 4.65237 11.9083C4.93852 11.0849 5.28401 10.2793 5.68663 9.49684C5.28355 8.71452 4.93805 7.90896 4.65237 7.08542ZM15.743 12.8685L15.6266 12.4973C15.3151 11.5254 14.9159 10.5783 14.4331 9.66546L14.3447 9.49684L14.4331 9.32821C14.9157 8.41507 15.3149 7.46771 15.6266 6.49563L15.743 6.12513L16.1569 6.21934C19.2343 6.92313 21 8.11775 21 9.49684C21 10.8759 19.2343 12.0698 16.1569 12.7735L15.743 12.8685ZM15.3134 9.49684C15.7334 10.3194 16.0808 11.1277 16.3476 11.9083C18.6882 11.3129 20.1232 10.4033 20.1232 9.49684C20.1232 8.58959 18.6874 7.68075 16.3476 7.08542C16.0619 7.90893 15.7164 8.71448 15.3134 9.49684ZM4.64625 7.08146L4.52987 6.71175C3.6645 3.952 3.927 1.97442 5.25 1.28409C6.54763 0.606419 8.631 1.40679 10.8141 3.43425L11.1116 3.71054L10.8141 3.98684C10.0384 4.71644 9.32964 5.502 8.69488 6.33571L8.57675 6.4885L8.37113 6.50433C7.25454 6.58397 6.14695 6.74548 5.05925 6.98725L4.64625 7.08146ZM6.30525 1.83271C6.07075 1.83271 5.86337 1.87863 5.68837 1.96967C4.81862 2.42329 4.66462 4.00029 5.264 6.12829C6.19643 5.94061 7.14139 5.80813 8.09287 5.73167C8.64187 5.02541 9.24167 4.35262 9.88837 3.71767C8.52337 2.51513 7.231 1.83271 6.30525 1.83271ZM14.6956 17.9526C14.6947 17.9526 14.6947 17.9526 14.6956 17.9526C13.4488 17.9526 11.8475 17.1032 10.1859 15.5594L9.88837 15.2831L10.1859 15.0068C10.9614 14.277 11.6699 13.4912 12.3043 12.6572L12.4224 12.5044L12.6271 12.4885C13.7443 12.4093 14.8525 12.2481 15.9408 12.0064L16.3538 11.9122L16.471 12.2827C17.3346 15.0409 17.073 17.0193 15.75 17.7088C15.4286 17.8732 15.0648 17.9573 14.6956 17.9526ZM11.1116 15.276C12.4766 16.4785 13.769 17.161 14.6948 17.161H14.6956C14.9292 17.161 15.1375 17.115 15.3116 17.024C16.1814 16.5704 16.3362 14.9926 15.736 12.8646C14.8033 13.0525 13.8581 13.185 12.9062 13.2612C12.3579 13.968 11.7584 14.641 11.1116 15.276ZM16.3538 7.08146L15.9408 6.98725C14.8526 6.74478 13.7444 6.58327 12.6271 6.50433L12.4224 6.4885L12.3043 6.33571C11.6702 5.50173 10.9617 4.71615 10.1859 3.98684L9.88837 3.71054L10.1859 3.43425C12.3681 1.40759 14.4506 0.607211 15.75 1.28409C17.073 1.97442 17.3355 3.952 16.471 6.71096L16.3538 7.08146ZM12.9062 5.73167C13.9055 5.814 14.8549 5.94779 15.736 6.12829C16.3362 4.00029 16.1814 2.42329 15.3116 1.96967C14.4471 1.51763 12.8223 2.21034 11.1116 3.71767C11.758 4.35265 12.3575 5.02544 12.9062 5.73167ZM6.30525 17.9526C5.93582 17.9575 5.57162 17.8733 5.25 17.7088C3.927 17.0193 3.6645 15.0417 4.52987 12.2827L4.64538 11.9122L5.05838 12.0064C6.069 12.2368 7.18375 12.3991 8.37025 12.4885L8.57587 12.5044L8.69313 12.6572C9.32799 13.4911 10.0367 14.2769 10.8124 15.0068L11.1099 15.2831L10.8124 15.5594C9.15163 17.1032 7.55037 17.9526 6.30525 17.9526ZM5.264 12.8646C4.66375 14.9926 4.81862 16.5704 5.68837 17.024C6.552 17.4697 8.176 16.7825 9.88837 15.276C9.24193 14.6406 8.64214 13.9675 8.09287 13.2612C7.14135 13.1851 6.19636 13.0526 5.264 12.8646ZM10.5 13.3618C9.77987 13.3618 9.03963 13.3333 8.2985 13.2778L8.09287 13.262L7.97475 13.1092C7.55555 12.5642 7.16146 12.0038 6.7935 11.4293C6.42663 10.8544 6.08626 10.2659 5.77325 9.66546L5.68575 9.49684L5.77325 9.32821C6.08621 8.72775 6.42659 8.1393 6.7935 7.56438C7.15575 6.99754 7.55388 6.43229 7.97475 5.88446L8.09287 5.73167L8.2985 5.71584C9.76383 5.60342 11.237 5.60342 12.7024 5.71584L12.9071 5.73167L13.0244 5.88446C13.8636 6.97464 14.6004 8.12659 15.2268 9.32821L15.3151 9.49684L15.2268 9.66546C14.6019 10.8678 13.8651 12.0199 13.0244 13.1092L12.9071 13.262L12.7024 13.2778C11.9613 13.3333 11.2201 13.3618 10.5 13.3618ZM8.57763 12.5036C9.87263 12.5915 11.1274 12.5915 12.4233 12.5036C13.1467 11.5467 13.7891 10.5415 14.3447 9.49684C13.79 8.4515 13.1474 7.44629 12.4224 6.49009C11.1426 6.40221 9.85737 6.40221 8.57763 6.49009C7.85232 7.44611 7.20962 8.45135 6.65525 9.49684C7.21154 10.5414 7.85415 11.5465 8.57763 12.5036Z" fill="#D1D1D1"/>
</svg>
