<svg width="222" height="211" viewBox="0 0 222 211" fill="none" xmlns="http://www.w3.org/2000/svg">
<path d="M182.98 116.321C176.001 116.35 169.957 117.95 164.91 120.319C163.072 116.794 161.171 113.715 160.859 111.405C160.486 108.71 160.08 107.112 160.517 103.914C160.954 100.715 162.916 96.1842 162.885 95.859C162.854 95.5335 162.449 93.9044 158.43 93.8747C154.411 93.8455 150.953 94.6149 150.547 95.6217C150.142 96.6284 149.364 98.909 148.896 101.278C148.18 104.742 140.857 117.121 136.714 123.576C135.343 121.06 134.191 118.838 133.941 117.061C133.567 114.366 133.162 112.767 133.598 109.569C134.034 106.371 135.997 101.84 135.966 101.515C135.934 101.189 135.529 99.5602 131.511 99.5305C127.491 99.5013 124.034 100.271 123.628 101.278C123.223 102.284 122.787 104.653 121.977 106.934C121.168 109.213 111.415 129.823 108.86 135.184C107.551 137.907 106.431 140.099 105.62 141.58C105.496 141.817 105.402 141.965 105.34 142.084C105.433 141.936 105.496 141.787 105.496 141.847C104.811 143.12 104.405 143.831 104.405 143.831V143.86C103.875 144.807 103.284 145.666 103.003 145.666C102.816 145.666 102.412 143.179 103.097 139.773C104.561 132.607 108.019 121.474 107.988 121.088C107.957 120.881 108.642 118.957 105.713 117.92C102.879 116.943 101.85 118.572 101.601 118.572C101.352 118.572 101.165 119.164 101.165 119.164C101.165 119.164 104.312 106.608 95.1207 106.608C89.3881 106.608 81.4126 112.591 77.4873 118.009C75.0258 119.283 69.6978 122.037 64.0901 124.968C61.9403 126.093 59.7281 127.248 57.6408 128.344C57.4852 128.195 57.3603 128.047 57.2046 127.899C46.0509 116.588 25.4569 108.593 26.3297 93.4012C26.641 87.8637 28.6664 73.3249 65.9285 55.6759C96.4613 41.2253 120.887 45.1935 125.094 54.0176C131.137 66.603 112.039 90.026 80.3225 93.4012C68.234 94.6746 61.8788 90.2329 60.2896 88.575C58.6381 86.8281 58.3888 86.7386 57.7657 87.0646C56.7372 87.5975 57.3919 89.1375 57.7657 90.0553C58.7005 92.3944 62.5946 96.5402 69.2312 98.6132C75.0566 100.419 89.2329 101.427 106.368 95.1189C125.622 88.071 140.609 68.4381 136.215 52.004C131.729 35.3033 102.599 29.8247 75.0262 39.1227C58.6073 44.6602 40.8486 53.3664 28.0745 64.7073C12.9018 78.2109 10.4719 89.9663 11.4683 94.8823C15.0203 112.323 40.3183 123.695 50.444 132.104C49.9454 132.371 49.478 132.608 49.0422 132.845C43.964 135.243 24.6786 144.837 19.8492 154.965C14.3976 166.455 20.7524 174.686 24.9275 175.812C37.9505 179.246 51.2852 173.058 58.4512 162.901C65.6164 152.744 64.7444 139.478 61.4421 133.437C61.4105 133.348 61.3485 133.29 61.3177 133.2C62.6259 132.46 63.9652 131.72 65.3055 130.979C67.891 129.528 70.4149 128.195 72.6267 127.041C71.3801 130.24 70.4769 134.088 70.0095 139.656C69.4489 146.17 72.2842 154.609 75.9606 157.926C77.5801 159.377 79.5429 159.407 80.7583 159.407C85.0578 159.407 86.9891 156.031 89.1388 152.004C91.7872 147.087 94.1238 141.372 94.1238 141.372C94.1238 141.372 91.1953 156.831 99.2021 156.831C102.131 156.831 105.06 153.247 106.368 151.411V151.441C106.368 151.441 106.431 151.323 106.586 151.086C106.898 150.642 107.053 150.375 107.053 150.375V150.285C108.237 148.361 110.823 143.948 114.717 136.664C119.765 127.247 124.593 115.491 124.593 115.491C124.593 115.491 125.03 118.364 126.526 123.132C127.398 125.945 129.236 129.024 130.7 132.015C129.517 133.555 128.8 134.444 128.8 134.444C128.8 134.444 128.8 134.473 128.83 134.503C127.896 135.688 126.837 136.961 125.746 138.205C121.758 142.706 117.022 147.859 116.4 149.339C115.651 151.086 115.839 152.388 117.272 153.396C118.331 154.166 120.201 154.284 122.163 154.136C125.746 153.898 128.27 153.07 129.485 152.536C131.416 151.886 133.66 150.848 135.778 149.398C139.673 146.674 142.041 142.765 141.822 137.613C141.698 134.77 140.731 131.927 139.548 129.263C139.891 128.788 140.265 128.284 140.607 127.782C146.777 119.223 151.543 109.837 151.543 109.837C151.543 109.837 151.98 112.709 153.475 117.476C154.223 119.875 155.687 122.511 157.026 125.086C151.231 129.558 147.649 134.741 146.402 138.145C144.096 144.453 145.904 147.295 149.3 147.948C150.826 148.243 153.007 147.562 154.628 146.91C156.652 146.259 159.083 145.222 161.357 143.623C165.251 140.9 169.022 137.079 168.773 131.897C168.679 129.558 167.993 127.218 167.09 124.968C171.981 123.014 178.338 121.947 186.438 122.836C203.791 124.761 207.187 135.065 206.533 139.359C205.879 143.683 202.234 146.052 201.019 146.762C199.803 147.473 199.429 147.74 199.524 148.273C199.679 149.043 200.239 149.013 201.267 148.835C202.701 148.598 210.365 145.341 210.707 137.375C211.207 127.307 201.019 116.232 182.98 116.321ZM49.2291 159.169C43.497 165.121 35.4586 167.372 32.0007 165.477C28.293 163.434 29.7573 154.669 36.8296 148.331C41.1291 144.482 46.6748 140.929 50.3512 138.738C51.1924 138.264 52.4078 137.553 53.9032 136.695C54.1526 136.547 54.277 136.488 54.277 136.488C54.5571 136.309 54.8689 136.162 55.1806 135.984C57.7657 144.986 55.2734 152.921 49.2291 159.169ZM91.1026 132.104C89.1085 136.753 84.9022 148.598 82.3483 147.976C80.1673 147.443 78.8271 138.411 81.9121 129.528C83.4696 125.057 86.7718 119.727 88.7351 117.654C91.8813 114.308 95.3396 113.241 96.15 114.574C97.2401 116.321 92.3483 129.202 91.1026 132.104ZM125.685 147.799C124.844 148.213 124.065 148.48 123.691 148.272C123.411 148.124 124.034 147.561 124.034 147.561C124.034 147.561 128.364 143.149 130.078 141.135C131.075 139.951 132.227 138.559 133.474 137.02C133.474 137.167 133.504 137.316 133.504 137.493C133.474 142.794 128.115 146.378 125.685 147.799ZM152.355 142.024C151.732 141.61 151.824 140.218 153.912 135.894C154.722 134.206 156.592 131.364 159.832 128.639C160.206 129.764 160.423 130.83 160.423 131.837C160.392 138.5 155.376 140.987 152.355 142.024Z" fill="#CF649A"/>
</svg>
