<svg width="180" height="174" viewBox="0 0 180 174" fill="none" xmlns="http://www.w3.org/2000/svg">
<path fill-rule="evenodd" clip-rule="evenodd" d="M122.143 148.222V161.128C122.143 168.258 116.394 174 109.302 174H12.8406C5.72738 174 0 168.208 0 161.064V12.9361C0 5.78929 5.78089 0 12.912 0H77.1429V38.6789C77.1429 45.8412 82.9162 51.5556 90.038 51.5556H122.143V64.4444H57.9012C47.2256 64.4444 38.5714 73.0946 38.5714 83.77V128.897C38.5714 139.57 47.1599 148.222 57.9012 148.222H122.143ZM83.5714 0V38.6478C83.5714 42.2174 86.4706 45.1111 89.9407 45.1111H122.143L83.5714 0ZM57.8222 70.8889C50.7407 70.8889 45 76.69 45 83.7263V128.94C45 136.03 50.8008 141.778 57.8222 141.778H167.178C174.259 141.778 180 135.977 180 128.94V83.7263C180 76.6364 174.199 70.8889 167.178 70.8889H57.8222ZM120.058 128.133C118.692 128.623 117.219 128.889 115.683 128.889H109.317C102.175 128.889 96.4286 123.101 96.4286 115.962V96.7048C96.4286 89.4911 102.199 83.7778 109.317 83.7778H115.683C122.825 83.7778 128.571 89.5654 128.571 96.7048V115.962C128.571 119.218 127.396 122.169 125.451 124.426L130.293 129.28L125.747 133.837L120.058 128.133ZM114.383 122.444H109.279C105.703 122.444 102.857 119.56 102.857 116.001V96.6654C102.857 93.0817 105.732 90.2222 109.279 90.2222H115.721C119.297 90.2222 122.143 93.1069 122.143 96.6654V116.001C122.143 117.448 121.674 118.776 120.883 119.846L112.11 111.052L107.564 115.609L114.383 122.444ZM70.7457 83.7778C63.6275 83.7778 57.8571 89.4987 57.8571 96.6667C57.8571 103.785 63.564 109.556 70.7143 109.556H77.0826C80.6663 109.556 83.5714 112.416 83.5714 116C83.5714 119.559 80.7258 122.444 77.1496 122.444H70.7076C67.1609 122.444 64.2857 119.504 64.2857 116.029V115.956H57.8571V115.993C57.8571 123.115 63.6036 128.889 70.7457 128.889H77.1115C84.2296 128.889 90 123.168 90 116C90 108.882 84.2932 103.111 77.1429 103.111H70.7745C67.1908 103.111 64.2857 100.251 64.2857 96.6667C64.2857 93.1075 67.1314 90.2222 70.7076 90.2222H77.1496C80.6963 90.2222 83.5714 93.1428 83.5714 96.6667H90C90 89.5483 84.2535 83.7778 77.1115 83.7778H70.7457ZM167.143 122.444V128.889H135V83.7778H141.429V122.444H167.143Z" fill="#157EFB"/>
</svg>
